HIERARCHY
ROOT Hips
{
  OFFSET -43.3411 73.6987 0
  CHANNELS 6 Xposition Yposition Zposition Zrotation Xrotation Yrotation
  JOINT Bip01_Pelvis
  {
    OFFSET 0 0 0
    CHANNELS 6 Xposition Yposition Zposition Zrotation Xrotation Yrotation
    JOINT BN_Tail_01
    {
      OFFSET -18.6385 -9.591 -2.032e-005
      CHANNELS 6 Xposition Yposition Zposition Zrotation Xrotation Yrotation
      JOINT BN_Tail_02
      {
        OFFSET 20.9743 0 0
        CHANNELS 6 Xposition Yposition Zposition Zrotation Xrotation Yrotation
        JOINT BN_Tail_03
        {
          OFFSET 20.3015 0 0
          CHANNELS 6 Xposition Yposition Zposition Zrotation Xrotation Yrotation
          JOINT BN_Tail_04
          {
            OFFSET 21.6394 -9.91821e-005 0
            CHANNELS 6 Xposition Yposition Zposition Zrotation Xrotation Yrotation
            End Site
            {
              OFFSET 0 0 0
            }
          }
        }
      }
    }
    JOINT Bip01_Spine
    {
      OFFSET 22.1878 -0.659386 3.048e-005
      CHANNELS 6 Xposition Yposition Zposition Zrotation Xrotation Yrotation
      JOINT Bip01_R_Thigh
      {
        OFFSET -22.1873 0.677109 -17.1024
        CHANNELS 6 Xposition Yposition Zposition Zrotation Xrotation Yrotation
        JOINT Bip01_R_Calf
        {
          OFFSET 34.2647 0 0
          CHANNELS 6 Xposition Yposition Zposition Zrotation Xrotation Yrotation
          JOINT Bip01_R_HorseLink
          {
            OFFSET 20.4429 0 0
            CHANNELS 6 Xposition Yposition Zposition Zrotation Xrotation Yrotation
            JOINT Bip01_R_Foot
            {
              OFFSET 16.5673 0 0
              CHANNELS 6 Xposition Yposition Zposition Zrotation Xrotation Yrotation
              JOINT Bip01_R_Toe0
              {
                OFFSET 9.18784 6.94841 0
                CHANNELS 6 Xposition Yposition Zposition Zrotation Xrotation Yrotation
                JOINT Bip01_R_Toe0Nub
                {
                  OFFSET 1.01907 0 0
                  CHANNELS 6 Xposition Yposition Zposition Zrotation Xrotation Yrotation
                  End Site
                  {
                    OFFSET 0 0 0
                  }
                }
              }
            }
          }
        }
      }
      JOINT Bip01_L_Thigh
      {
        OFFSET -22.1873 0.67701 17.1024
        CHANNELS 6 Xposition Yposition Zposition Zrotation Xrotation Yrotation
        JOINT Bip01_L_Calf
        {
          OFFSET 34.2647 0 0
          CHANNELS 6 Xposition Yposition Zposition Zrotation Xrotation Yrotation
          JOINT Bip01_L_HorseLink
          {
            OFFSET 20.4429 0 0
            CHANNELS 6 Xposition Yposition Zposition Zrotation Xrotation Yrotation
            JOINT Bip01_L_Foot
            {
              OFFSET 16.5673 0 0
              CHANNELS 6 Xposition Yposition Zposition Zrotation Xrotation Yrotation
              JOINT Bip01_L_Toe0
              {
                OFFSET 9.18784 6.9484 1.14441e-005
                CHANNELS 6 Xposition Yposition Zposition Zrotation Xrotation Yrotation
                JOINT Bip01_L_Toe0Nub
                {
                  OFFSET 1.01907 0 0
                  CHANNELS 6 Xposition Yposition Zposition Zrotation Xrotation Yrotation
                  End Site
                  {
                    OFFSET 0 0 0
                  }
                }
              }
            }
          }
        }
      }
      JOINT Bip01_Spine1
      {
        OFFSET 39.3372 -0.0249863 0
        CHANNELS 6 Xposition Yposition Zposition Zrotation Xrotation Yrotation
        JOINT Bip01_Neck
        {
          OFFSET 34.2837 -15.5934 -4.318e-005
          CHANNELS 6 Xposition Yposition Zposition Zrotation Xrotation Yrotation
          JOINT Bip01_R_Clavicle
          {
            OFFSET -17.9452 -11.3131 -6.19287
            CHANNELS 6 Xposition Yposition Zposition Zrotation Xrotation Yrotation
            JOINT Bip01_R_UpperArm
            {
              OFFSET 17.4439 1.52588e-005 -2.28882e-005
              CHANNELS 6 Xposition Yposition Zposition Zrotation Xrotation Yrotation
              JOINT Bip01_R_Forearm
              {
                OFFSET 30.6251 1.14441e-005 0
                CHANNELS 6 Xposition Yposition Zposition Zrotation Xrotation Yrotation
                JOINT Bip01_R_Hand
                {
                  OFFSET 31.2039 0 0
                  CHANNELS 6 Xposition Yposition Zposition Zrotation Xrotation Yrotation
                  JOINT Bip01_R_Finger0
                  {
                    OFFSET 22.1039 0.255862 -0.37902
                    CHANNELS 6 Xposition Yposition Zposition Zrotation Xrotation Yrotation
                    JOINT Bip01_R_Finger0Nub
                    {
                      OFFSET 12.0552 0 0
                      CHANNELS 6 Xposition Yposition Zposition Zrotation Xrotation Yrotation
                      End Site
                      {
                        OFFSET 0 0 0
                      }
                    }
                  }
                }
              }
            }
          }
          JOINT Bip01_L_Clavicle
          {
            OFFSET -17.9452 -11.3132 6.19281
            CHANNELS 6 Xposition Yposition Zposition Zrotation Xrotation Yrotation
            JOINT Bip01_L_UpperArm
            {
              OFFSET 17.444 0 1.14441e-005
              CHANNELS 6 Xposition Yposition Zposition Zrotation Xrotation Yrotation
              JOINT Bip01_L_Forearm
              {
                OFFSET 30.6251 0 0
                CHANNELS 6 Xposition Yposition Zposition Zrotation Xrotation Yrotation
                JOINT Bip01_L_Hand
                {
                  OFFSET 31.204 0 0
                  CHANNELS 6 Xposition Yposition Zposition Zrotation Xrotation Yrotation
                  JOINT Bip01_L_Finger0
                  {
                    OFFSET 22.1039 0.255856 0.379024
                    CHANNELS 6 Xposition Yposition Zposition Zrotation Xrotation Yrotation
                    JOINT Bip01_L_Finger0Nub
                    {
                      OFFSET 12.0552 0 0
                      CHANNELS 6 Xposition Yposition Zposition Zrotation Xrotation Yrotation
                      End Site
                      {
                        OFFSET 0 0 0
                      }
                    }
                  }
                }
              }
            }
          }
          JOINT Bip01_Neck1
          {
            OFFSET 14.9359 -0.0106278 0
            CHANNELS 6 Xposition Yposition Zposition Zrotation Xrotation Yrotation
            JOINT Bip01_Head
            {
              OFFSET 14.3578 0.505501 0
              CHANNELS 6 Xposition Yposition Zposition Zrotation Xrotation Yrotation
              JOINT BN_Ear_L_01
              {
                OFFSET 3.76994 -2.35629 12.3444
                CHANNELS 6 Xposition Yposition Zposition Zrotation Xrotation Yrotation
                End Site
                {
                  OFFSET 0 0 0
                }
              }
              JOINT BN_Ear_R_01
              {
                OFFSET 3.76995 -2.35622 -12.3442
                CHANNELS 6 Xposition Yposition Zposition Zrotation Xrotation Yrotation
                End Site
                {
                  OFFSET 0 0 0
                }
              }
              JOINT BN_Mouth_01
              {
                OFFSET 11.8395 10.8645 1.27e-005
                CHANNELS 6 Xposition Yposition Zposition Zrotation Xrotation Yrotation
                JOINT BN_Tongue_01
                {
                  OFFSET 9.73752 3.21674 1.016e-005
                  CHANNELS 6 Xposition Yposition Zposition Zrotation Xrotation Yrotation
                  JOINT BN_Tongue_02
                  {
                    OFFSET 9.04304 0.053505 0
                    CHANNELS 6 Xposition Yposition Zposition Zrotation Xrotation Yrotation
                    End Site
                    {
                      OFFSET 0 0 0
                    }
                  }
                }
                JOINT BN_Beard_01
                {
                  OFFSET 6.93466 -0.751793 0
                  CHANNELS 6 Xposition Yposition Zposition Zrotation Xrotation Yrotation
                  JOINT BN_Beard_02
                  {
                    OFFSET 13.0965 1.52588e-005 0
                    CHANNELS 6 Xposition Yposition Zposition Zrotation Xrotation Yrotation
                    End Site
                    {
                      OFFSET 0 0 0
                    }
                  }
                }
              }
              JOINT Bip01_HeadNub
              {
                OFFSET 25.6158 0 0
                CHANNELS 6 Xposition Yposition Zposition Zrotation Xrotation Yrotation
                End Site
                {
                  OFFSET 0 0 0
                }
              }
            }
          }
        }
      }
    }
  }
}
MOTION
Frames:	4
Frame Time:	0.0333333
22.3555 52.621 0.327559 -123.385 -81.2602 -61.9414 -3.8147e-006 4.76837e-007 1.42109e-014 -90.6102 -9.42841 -94.6177 -18.6385 -9.59101 -8.88178e-016 -50.8616 12.2377 -163.302 20.9743 7.62937e-006 -0.000629902 8.73547 19.5404 -0.83088 20.3014 -1.52588e-005 -3.42837e-013 -17.8171 -5.37557 -19.0778 21.6394 7.6294e-006 2.86102e-006 69.5606 64.5388 -90.1454 21.7263 -4.28123 -1.76398 23.4906 6.08851 -6.57688 -19.9992 10.8892 -14.3904 -90.8827 -5.83125 169.553 34.2647 -3.8147e-006 -3.8147e-006 -92.6179 -1.02058e-006 9.54288e-006 20.4429 3.8147e-006 3.8147e-006 116.324 1.25596e-006 1.01412e-006 16.5673 1.52767e-013 5.72205e-006 -13.4054 -1.44554 11.241 9.18784 6.94838 6.14632e-009 80.9289 0.0733285 -0.399025 1.01907 8.27116e-015 3.8147e-006 7.18925e-008 -1.2122e-008 -7.71288e-007 -16.1022 14.5176 19.3975 -120.809 -6.06656 -178.599 34.2647 -2.86102e-006 -1.90735e-006 -99.7447 3.18393e-006 -1.65691e-005 20.4429 8.88179e-016 3.55271e-015 142.045 -8.52788e-006 -4.49963e-006 16.5673 3.55271e-013 -5.72205e-006 -67.6768 -26.1542 -4.39454 9.18784 6.94839 -3.74608e-006 90.0826 0.218431 -1.38321 1.01907 1.19904e-014 3.8147e-006 -179.96 1.72887e-005 -2.10185e-005 39.3316 -0.0235578 0.00324066 -13.7079 -8.52393 -2.40393 34.2892 -15.5918 4.29087e-005 8.02015 -9.57926 1.14803 -18.7435 -8.46751 -8.08976 171.378 -73.2882 95.5668 17.4439 -1.14441e-005 2.84217e-014 63.0965 34.4574 -73.311 30.625 -3.8147e-006 -1.90735e-006 -50.3787 -6.6889e-006 8.69797e-006 31.2039 -1.42109e-014 1.90735e-006 164.896 84.6842 -179.969 22.1039 0.255841 -0.379026 -1.87594 -0.690428 -11.9144 12.0552 -1.90736e-006 5.96045e-007 179.96 -8.87178e-006 1.72024e-005 -18.989 -10.5287 4.12073 172.384 60.8331 -52.9656 17.444 -7.6294e-006 -3.8147e-006 26.103 -73.5624 13.8846 30.6251 -3.8147e-006 3.81469e-006 -75.5552 -1.36135e-005 -1.10792e-005 31.2039 -3.41061e-013 3.81469e-006 156.705 -85.7879 135.803 22.1039 0.255841 0.379047 -10.83 -0.650486 35.2586 12.0552 -3.81471e-006 -7.62938e-006 3.76766e-007 1.0345e-005 1.14426e-005 14.9354 -0.0106583 0.000170231 -9.2586 -13.8606 1.2474 14.3578 0.505486 -4.52167e-007 3.82965 13.2515 -5.94945 3.7699 -2.35626 12.3444 153.249 16.4529 -43.8406 3.76995 -2.3562 -12.3442 32.9756 8.54524 83.2792 11.8396 10.8645 -4.56964e-007 -159.641 -3.94714 179.97 9.7375 3.21675 -1.50944e-008 -2.85748 -4.15706e-007 9.99419e-006 5.17482 0.535263 -0.1598 -9.73029 -1.29894e-006 9.96167e-006 6.93465 -0.751801 -9.50147e-007 -70.3183 -1.34112 -5.19342 13.0966 3.05176e-005 -1.91847e-013 11.7953 0.653527 -7.33961 25.6158 7.6294e-006 2.84217e-014 -1.13304e-007 1.12876e-006 -2.21826e-008 
22.1899 52.8898 0.193921 -122.412 -81.3163 -60.6079 -3.8147e-006 4.76837e-007 1.42109e-014 -90.7804 -9.68276 -94.473 -18.6385 -9.59101 0 -51.4098 12.2206 -162.944 20.9743 7.62937e-006 -0.000629902 9.65675 19.4686 -0.950792 20.3014 -1.52588e-005 -3.41061e-013 -18.0636 -9.70814 -17.8565 21.6394 7.6294e-006 2.86102e-006 78.2007 65.8411 -101.721 21.7113 -4.37842 -1.70916 22.5237 2.74041 -6.3929 -20.0414 11.6118 -13.8203 -90.5979 -5.62525 172.699 34.2647 -3.8147e-006 -3.8147e-006 -91.6126 -8.42682e-007 9.55804e-006 20.4429 3.8147e-006 3.8147e-006 116.343 1.28372e-006 1.02306e-006 16.5673 1.52767e-013 5.72205e-006 -14.4741 -1.57173 11.3926 9.18784 6.94838 6.15523e-009 80.9192 0.0748722 -0.405411 1.01907 3.38618e-015 3.8147e-006 7.18925e-008 -1.2122e-008 -7.71288e-007 -16.2355 13.248 20.1322 -120.701 -7.3348 -175.785 34.2647 -2.86102e-006 -1.90735e-006 -99.5041 3.11494e-006 -1.65824e-005 20.4429 -8.88179e-016 1.42109e-014 140.867 -8.4344e-006 -4.67387e-006 16.5673 3.48166e-013 -5.72205e-006 -66.8279 -26.1035 -4.1481 9.18784 6.94839 -3.74631e-006 90.0684 0.208423 -1.31847 1.01907 3.9524e-014 3.8147e-006 -179.96 1.72887e-005 -2.10185e-005 39.3325 -0.0236937 0.000834788 -11.6358 -2.98652 -1.85512 34.2892 -15.5918 4.2911e-005 8.49979 -3.15486 1.23937 -18.8322 -9.11959 -7.11359 173.252 -67.1126 98.9166 17.4439 -1.14441e-005 1.42109e-014 66.1061 32.9399 -74.047 30.625 -3.8147e-006 -1.90735e-006 -53.6107 -1.20286e-007 3.03274e-006 31.2039 1.42109e-014 1.90735e-006 172.843 84.8395 172.251 22.1039 0.255841 -0.379026 -1.88289 -0.676453 -12.0808 12.0552 -1.90736e-006 5.96045e-007 179.96 -8.87153e-006 1.72032e-005 -19.1 -9.80138 5.24954 169.61 67.5335 -51.3251 17.444 -7.6294e-006 -3.8147e-006 20.5896 -73.3842 9.90004 30.6251 -3.8147e-006 3.81469e-006 -73.9492 -1.37122e-005 -1.05277e-005 31.2039 -2.70007e-013 3.81469e-006 162.62 -85.498 143.831 22.1039 0.255841 0.379047 -10.8659 -0.669052 34.8333 12.0552 -3.81471e-006 -7.62938e-006 3.76766e-007 1.0345e-005 1.14426e-005 14.9354 -0.0106583 0.000170231 -9.74337 -10.1673 1.57015 14.3578 0.505486 -4.67613e-007 1.10403 12.174 -6.17156 3.7699 -2.35626 12.3444 154.386 15.3226 -44.2385 3.76995 -2.35619 -12.3442 33.031 8.33662 83.0188 11.8396 10.8645 -3.96986e-007 -160.562 -3.93763 179.904 9.7375 3.21675 -4.90357e-008 -2.85748 -1.86652e-007 9.96406e-006 5.17482 0.535263 -0.1598 -9.73029 -5.25511e-007 9.82091e-006 6.93465 -0.751801 -9.42214e-007 -71.6892 -0.980219 -16.0374 13.0966 3.05176e-005 8.52651e-014 13.229 0.422753 -22.9189 25.6158 7.6294e-006 5.32907e-014 -1.13304e-007 1.12876e-006 -2.21826e-008 
22.0251 53.155 0.0551326 -121.158 -81.3714 -58.9349 -3.8147e-006 4.76837e-007 1.42109e-014 -90.954 -9.93168 -94.3262 -18.6385 -9.59101 8.88178e-016 -51.5972 12.2145 -162.822 20.9743 7.62937e-006 -0.000629902 10.5377 19.4427 -0.990803 20.3014 -1.52588e-005 -3.97904e-013 -17.2083 -11.3098 -16.6998 21.6394 7.6294e-006 2.86102e-006 82.3794 67.1702 -107.071 21.6953 -4.4734 -1.64962 21.4296 -0.792432 -6.23518 -20.1118 12.303 -13.1772 -90.366 -5.35502 175.987 34.2647 -3.8147e-006 -3.8147e-006 -90.86 -7.08336e-007 9.56683e-006 20.4429 3.8147e-006 3.8147e-006 116.218 1.3022e-006 1.03253e-006 16.5673 1.49214e-013 5.72205e-006 -15.2833 -1.65917 11.535 9.18784 6.94838 6.14636e-009 80.9096 0.0763863 -0.411674 1.01907 -1.59317e-014 3.8147e-006 7.18925e-008 -1.2122e-008 -7.71288e-007 -16.3956 11.8308 20.822 -120.462 -8.70477 -172.844 34.2647 -2.86102e-006 -1.90735e-006 -99.2846 3.05202e-006 -1.65942e-005 20.4429 -2.66454e-015 1.77636e-014 139.624 -8.33173e-006 -4.85553e-006 16.5673 3.33955e-013 -5.72205e-006 -65.9219 -26.0789 -3.91084 9.18784 6.94839 -3.74654e-006 90.0546 0.198594 -1.255 1.01907 4.17444e-014 3.8147e-006 -179.96 1.72887e-005 -2.10185e-005 39.3334 -0.023822 -0.00152438 -9.484 2.94665 -1.54586 34.2892 -15.5918 4.29114e-005 8.92654 3.68065 1.26038 -18.9247 -9.71155 -5.99923 174.243 -60.4804 101.425 17.4439 -1.14441e-005 1.42109e-014 69.3233 31.3011 -74.7753 30.625 -3.8147e-006 -1.90735e-006 -57.0316 1.45893e-007 2.97695e-006 31.2039 0 1.90735e-006 -179.111 84.9469 164.452 22.1039 0.255841 -0.379026 -1.89328 -0.66623 -12.2166 12.0552 -1.90736e-006 5.96045e-007 179.96 -8.87139e-006 1.7204e-005 -19.1969 -8.91595 6.35788 164.405 74.5339 -47.2455 17.444 -7.6294e-006 -3.8147e-006 14.6973 -73.0499 5.73007 30.6251 -3.8147e-006 3.81469e-006 -72.2164 -1.38752e-005 -1.00419e-005 31.2039 -1.98952e-013 3.81469e-006 167.258 -85.0724 150.674 22.1039 0.255841 0.379047 -10.9016 -0.684326 34.3882 12.0552 -3.81471e-006 -7.62938e-006 3.76766e-007 1.0345e-005 1.14426e-005 14.9354 -0.0106583 0.000170231 -10.1731 -6.19906 1.91617 14.3578 0.505486 -4.73317e-007 -1.19013 10.9521 -7.48038 3.7699 -2.35626 12.3444 155.487 14.2073 -44.6045 3.76995 -2.35619 -12.3442 33.0842 8.13175 82.7638 11.8396 10.8645 -3.36892e-007 -161.492 -3.84827 179.83 9.7375 3.21675 -6.93384e-008 -2.85748 1.69489e-008 9.94603e-006 5.17482 0.535263 -0.1598 -9.73029 2.84103e-007 9.72546e-006 6.93465 -0.751801 -9.37469e-007 -73.3096 -0.783252 -27.3069 13.0966 3.05176e-005 3.51719e-013 14.8978 0.183876 -30.1732 25.6158 7.6294e-006 7.63834e-014 -1.13304e-007 1.12876e-006 -2.21826e-008 
21.8377 53.4245 -0.0785575 -119.712 -81.4379 -57.0078 -3.8147e-006 4.76837e-007 7.10543e-015 -91.1218 -10.1831 -94.1719 -18.6385 -9.59101 1.77636e-015 -51.5561 12.209 -162.823 20.9743 7.62937e-006 -0.000629902 11.4117 19.4642 -0.950935 20.3014 -1.52588e-005 -3.9968e-013 -15.688 -11.3032 -15.4833 21.6394 7.6294e-006 2.86102e-006 84.412 69.2877 -109.181 21.6792 -4.56933 -1.5895 20.2246 -4.33142 -6.12764 -20.2118 12.9215 -12.4913 -90.1946 -5.06545 179.258 34.2647 -3.8147e-006 -3.8147e-006 -90.2487 -5.98561e-007 9.5723e-006 20.4429 3.8147e-006 3.8147e-006 116.033 1.31469e-006 1.04188e-006 16.5673 1.61648e-013 5.72205e-006 -15.9652 -1.72488 11.6533 9.18784 6.94838 6.14148e-009 80.9 0.0779171 -0.417998 1.01907 1.66533e-015 3.8147e-006 7.18925e-008 -1.2122e-008 -7.71288e-007 -16.5695 10.337 21.4208 -120.166 -10.0964 -169.919 34.2647 -2.86102e-006 -1.90735e-006 -99.085 2.99465e-006 -1.66048e-005 20.4429 -8.88179e-016 1.77636e-014 138.288 -8.21686e-006 -5.0485e-006 16.5673 3.12639e-013 -5.72205e-006 -64.9585 -26.0516 -3.69757 9.18784 6.94839 -3.74685e-006 90.0406 0.188651 -1.19089 1.01907 2.22045e-014 3.8147e-006 -179.96 1.72887e-005 -2.10185e-005 39.3342 -0.0239591 -0.0039069 -7.24369 8.97743 -1.50449 34.2892 -15.5918 4.29109e-005 9.34582 10.6135 1.21974 -19.0222 -10.1763 -4.79896 174.742 -53.7339 103.518 17.4439 -1.14441e-005 0 72.5965 29.6259 -75.4205 30.625 -3.8147e-006 -1.90735e-006 -60.471 -1.61283e-006 4.39254e-006 31.2039 0 1.90735e-006 -171.664 84.9742 157.275 22.1039 0.255841 -0.379026 -1.9022 -0.660099 -12.3203 12.0552 -1.90736e-006 5.96045e-007 179.96 -8.87141e-006 1.72047e-005 -19.2813 -7.89486 7.37203 151.198 81.3008 -35.1885 17.444 -7.6294e-006 -3.8147e-006 8.95332 -72.609 1.84165 30.6251 -3.8147e-006 3.81469e-006 -70.4815 -4.67027e-006 -1.30287e-005 31.2039 -5.68435e-014 3.81469e-006 171.01 -84.5509 156.619 22.1039 0.255841 0.379047 -10.9415 -0.69672 33.8991 12.0552 -3.81471e-006 -7.62938e-006 3.76766e-007 1.0345e-005 1.14426e-005 14.9354 -0.0106583 0.000170231 -10.5598 -2.08065 2.29133 14.3578 0.505486 -4.74619e-007 -2.83884 9.64936 -9.79261 3.7699 -2.35627 12.3444 156.496 13.2708 -45.4965 3.76995 -2.35619 -12.3442 33.1372 7.92465 82.5066 11.8396 10.8645 -4.20264e-007 -162.453 -3.88033 179.771 9.7375 3.21675 -1.11062e-007 -2.85748 1.24014e-007 9.90898e-006 5.17482 0.535263 -0.1598 -9.73029 8.72345e-007 9.58191e-006 6.93465 -0.751801 -9.27718e-007 -74.5351 -1.00049 -32.7679 13.0966 3.05176e-005 4.15668e-013 17.3481 -0.0707873 -31.3769 25.6158 7.6294e-006 3.64153e-014 -1.13304e-007 1.12876e-006 -2.21826e-008 
